<?xml version="1.0" encoding="UTF-8" standalone="no"?>
<svg
   width="64"
   height="64"
   version="1.1"
   id="svg1"
   sodipodi:docname="keyboard_arrow_down_outline.svg"
   inkscape:version="1.3.2 (091e20e, 2023-11-25, custom)"
   xmlns:inkscape="http://www.inkscape.org/namespaces/inkscape"
   xmlns:sodipodi="http://sodipodi.sourceforge.net/DTD/sodipodi-0.dtd"
   xmlns="http://www.w3.org/2000/svg"
   xmlns:svg="http://www.w3.org/2000/svg">
  <sodipodi:namedview
     id="namedview1"
     pagecolor="#505050"
     bordercolor="#eeeeee"
     borderopacity="1"
     inkscape:showpageshadow="0"
     inkscape:pageopacity="0"
     inkscape:pagecheckerboard="0"
     inkscape:deskcolor="#505050"
     showguides="true"
     inkscape:zoom="12.703125"
     inkscape:cx="32.629766"
     inkscape:cy="24.206642"
     inkscape:window-width="1920"
     inkscape:window-height="1009"
     inkscape:window-x="4472"
     inkscape:window-y="200"
     inkscape:window-maximized="1"
     inkscape:current-layer="svg1" />
  <defs
     id="defs1" />
  <g
     id="g1"
     transform="matrix(1.3333333,0,0,1.3333333,-10.666667,-10.666667)">
    <path
       stroke="none"
       fill="#ffffff"
       d="m 16,53 h 32 q 5,0 5,-5 V 16 q 0,-5 -5,-5 H 16 q -5,0 -5,5 v 32 q 0,5 5,5 M 8,48 V 16 Q 8,8 16,8 h 32 q 8,0 8,8 v 32 q 0,8 -8,8 H 16 Q 8,56 8,48 m 24,-6 -8,-8 v -2 h 4 V 22 h 8 v 10 h 4 v 2 l -8,8"
       id="path1" />
  </g>
</svg>
